<?xml version="1.0" encoding="UTF-8"?>
<svg id="Layer_1" data-name="Layer 1" xmlns="http://www.w3.org/2000/svg" viewBox="0 0 481.55 124.86">
  <defs>
    <style>
      .cls-1 {
        fill: #908275;
      }

      .cls-2 {
        fill: #000b26;
      }
    </style>
  </defs>
  <g>
    <path class="cls-2" d="M40.8,82.18v-48.06h14.79c4.22,0,8,.95,11.34,2.85,3.33,1.9,5.94,4.61,7.81,8.12,1.87,3.51,2.81,7.5,2.81,11.97v2.21c0,4.47-.92,8.44-2.76,11.92-1.84,3.48-4.43,6.17-7.77,8.09-3.35,1.91-7.12,2.88-11.32,2.9h-14.89ZM50.7,42.14v32.08h4.79c3.87,0,6.83-1.27,8.88-3.8s3.09-6.15,3.14-10.86v-2.54c0-4.88-1.01-8.59-3.04-11.11-2.02-2.52-4.98-3.78-8.88-3.78h-4.89Z"/>
    <path class="cls-2" d="M113.65,61.29h-19.01v12.94h22.31v7.95h-32.21v-48.06h32.15v8.02h-22.25v11.45h19.01v7.69Z"/>
    <path class="cls-2" d="M140.51,70.27l10.89-36.14h11.02l-16.73,48.06h-10.33l-16.67-48.06h10.99l10.83,36.14Z"/>
    <path class="cls-2" d="M168.24,82.18v-48.06h13.57c4.18,0,7.88.92,11.09,2.77,3.21,1.85,5.69,4.48,7.44,7.89,1.75,3.41,2.64,7.33,2.66,11.75v3.07c0,4.53-.87,8.5-2.62,11.92-1.75,3.41-4.25,6.03-7.49,7.86-3.25,1.83-7.03,2.76-11.34,2.81h-13.3ZM174.58,39.31v37.69h6.67c4.88,0,8.69-1.52,11.4-4.56,2.72-3.04,4.08-7.37,4.08-12.98v-2.81c0-5.46-1.28-9.71-3.85-12.74s-6.2-4.56-10.91-4.61h-7.39Z"/>
    <path class="cls-2" d="M226.43,82.84c-4.84,0-8.78-1.59-11.82-4.77-3.04-3.18-4.55-7.43-4.55-12.76v-1.12c0-3.54.68-6.71,2.03-9.49,1.35-2.78,3.25-4.96,5.68-6.54,2.43-1.57,5.07-2.36,7.91-2.36,4.64,0,8.25,1.53,10.83,4.59s3.86,7.44,3.86,13.14v2.54h-24.19c.09,3.52,1.12,6.37,3.09,8.53,1.97,2.17,4.47,3.25,7.51,3.25,2.16,0,3.98-.44,5.48-1.32,1.5-.88,2.81-2.05,3.93-3.5l3.73,2.9c-2.99,4.6-7.48,6.9-13.47,6.9ZM225.67,50.83c-2.46,0-4.53.9-6.21,2.69-1.67,1.79-2.71,4.31-3.1,7.54h17.89v-.46c-.18-3.1-1.01-5.51-2.51-7.21-1.5-1.7-3.52-2.56-6.07-2.56Z"/>
    <path class="cls-2" d="M253.17,46.47l.17,3.96c2.62-3.08,6.15-4.62,10.59-4.62,5,0,8.4,1.91,10.2,5.74,1.19-1.72,2.73-3.1,4.64-4.16,1.9-1.06,4.15-1.58,6.75-1.58,7.83,0,11.82,4.15,11.95,12.44v23.93h-6.11v-23.57c0-2.55-.58-4.46-1.75-5.73s-3.12-1.9-5.88-1.9c-2.27,0-4.15.68-5.64,2.03-1.5,1.35-2.37,3.17-2.61,5.46v23.7h-6.14v-23.4c0-5.19-2.54-7.79-7.62-7.79-4.01,0-6.74,1.71-8.22,5.12v26.08h-6.11v-35.71h5.78Z"/>
    <path class="cls-2" d="M328.72,82.18c-.35-.7-.64-1.96-.86-3.76-2.84,2.95-6.23,4.42-10.17,4.42-3.52,0-6.41-1-8.66-2.99-2.26-1.99-3.38-4.52-3.38-7.57,0-3.72,1.41-6.61,4.24-8.67,2.83-2.06,6.8-3.09,11.93-3.09h5.94v-2.81c0-2.13-.64-3.83-1.92-5.1-1.28-1.27-3.16-1.9-5.64-1.9-2.18,0-4.01.55-5.48,1.65-1.47,1.1-2.21,2.43-2.21,3.99h-6.14c0-1.78.63-3.5,1.9-5.17,1.27-1.66,2.98-2.98,5.15-3.94,2.17-.97,4.55-1.45,7.15-1.45,4.12,0,7.34,1.03,9.67,3.09,2.33,2.06,3.54,4.89,3.63,8.5v16.44c0,3.28.42,5.89,1.25,7.82v.53h-6.4ZM318.59,77.53c1.92,0,3.73-.5,5.45-1.49,1.72-.99,2.96-2.28,3.73-3.86v-7.33h-4.79c-7.48,0-11.22,2.19-11.22,6.57,0,1.91.64,3.41,1.91,4.49,1.28,1.08,2.92,1.62,4.92,1.62Z"/>
    <path class="cls-2" d="M349.22,46.47l.2,4.49c2.73-3.43,6.29-5.15,10.69-5.15,7.55,0,11.35,4.26,11.42,12.77v23.6h-6.11v-23.63c-.02-2.57-.61-4.48-1.77-5.71-1.16-1.23-2.95-1.85-5.4-1.85-1.98,0-3.72.53-5.22,1.58s-2.66,2.44-3.5,4.16v25.45h-6.11v-35.71h5.78Z"/>
    <path class="cls-2" d="M379.25,64.03c0-5.48,1.3-9.89,3.89-13.22,2.6-3.33,6-5,10.2-5s7.49,1.43,9.94,4.29v-18.62h6.11v50.7h-5.61l-.3-3.83c-2.44,2.99-5.84,4.49-10.2,4.49s-7.51-1.69-10.12-5.08-3.91-7.81-3.91-13.27v-.46ZM385.36,64.72c0,4.05.84,7.22,2.51,9.51,1.67,2.29,3.98,3.43,6.93,3.43,3.87,0,6.7-1.74,8.48-5.21v-16.4c-1.83-3.37-4.63-5.05-8.42-5.05-2.99,0-5.33,1.16-7,3.47-1.67,2.31-2.51,5.73-2.51,10.27Z"/>
    <path class="cls-1" d="M420.91,86.31h-7.1l17.69-52.18h7.1l-17.69,52.18Z"/>
  </g>
  <path class="cls-1" d="M10.46,58.59l24.81,13.38v10.36L2.85,62.3v-7.72l32.42-19.99v10.36l-24.81,13.64Z"/>
  <path class="cls-1" d="M470.65,61.13l-26.2-13.7v-10.05l33.85,19.99v7.72l-33.85,20.04v-10.15l26.2-13.86Z"/>
</svg>