<?xml version="1.0" encoding="UTF-8"?>
<svg id="Layer_1" data-name="Layer 1" xmlns="http://www.w3.org/2000/svg" viewBox="0 0 481.55 124.86">
  <defs>
    <style>
      .cls-1 {
        fill: #908275;
      }

      .cls-2 {
        fill: #000b26;
      }
    </style>
  </defs>
  <g>
    <g>
      <path class="cls-2" d="M40.8,82.18v-48.06h14.79c4.22,0,8,.95,11.34,2.85,3.33,1.9,5.94,4.61,7.81,8.12,1.87,3.51,2.81,7.5,2.81,11.97v2.21c0,4.47-.92,8.44-2.76,11.92-1.84,3.48-4.43,6.17-7.77,8.09-3.35,1.91-7.12,2.88-11.32,2.9h-14.89ZM50.7,42.14v32.08h4.79c3.87,0,6.83-1.27,8.88-3.8s3.09-6.15,3.14-10.86v-2.54c0-4.88-1.01-8.59-3.04-11.11-2.02-2.52-4.98-3.78-8.88-3.78h-4.89Z"/>
      <path class="cls-2" d="M113.65,61.29h-19.01v12.94h22.31v7.95h-32.21v-48.06h32.15v8.02h-22.25v11.45h19.01v7.69Z"/>
      <path class="cls-2" d="M140.51,70.27l10.89-36.14h11.02l-16.73,48.06h-10.33l-16.67-48.06h10.99l10.83,36.14Z"/>
      <path class="cls-2" d="M168.24,82.18v-48.06h13.57c4.18,0,7.88.92,11.09,2.77,3.21,1.85,5.69,4.48,7.44,7.89,1.75,3.41,2.64,7.33,2.66,11.75v3.07c0,4.53-.87,8.5-2.62,11.92-1.75,3.41-4.25,6.03-7.49,7.86-3.25,1.83-7.03,2.76-11.34,2.81h-13.3ZM174.58,39.31v37.69h6.67c4.88,0,8.69-1.52,11.4-4.56,2.72-3.04,4.08-7.37,4.08-12.98v-2.81c0-5.46-1.28-9.71-3.85-12.74s-6.2-4.56-10.91-4.61h-7.39Z"/>
      <path class="cls-2" d="M226.43,82.84c-4.84,0-8.78-1.59-11.82-4.77-3.04-3.18-4.55-7.43-4.55-12.76v-1.12c0-3.54.68-6.71,2.03-9.49,1.35-2.78,3.25-4.96,5.68-6.54,2.43-1.57,5.07-2.36,7.91-2.36,4.64,0,8.25,1.53,10.83,4.59s3.86,7.44,3.86,13.14v2.54h-24.19c.09,3.52,1.12,6.37,3.09,8.53,1.97,2.17,4.47,3.25,7.51,3.25,2.16,0,3.98-.44,5.48-1.32,1.5-.88,2.81-2.05,3.93-3.5l3.73,2.9c-2.99,4.6-7.48,6.9-13.47,6.9ZM225.67,50.83c-2.46,0-4.53.9-6.21,2.69-1.67,1.79-2.71,4.31-3.1,7.54h17.89v-.46c-.18-3.1-1.01-5.51-2.51-7.21-1.5-1.7-3.52-2.56-6.07-2.56Z"/>
      <path class="cls-2" d="M253.17,46.47l.17,3.96c2.62-3.08,6.15-4.62,10.59-4.62,5,0,8.4,1.91,10.2,5.74,1.19-1.72,2.73-3.1,4.64-4.16,1.9-1.06,4.15-1.58,6.75-1.58,7.83,0,11.82,4.15,11.95,12.44v23.93h-6.11v-23.57c0-2.55-.58-4.46-1.75-5.73s-3.12-1.9-5.88-1.9c-2.27,0-4.15.68-5.64,2.03-1.5,1.35-2.37,3.17-2.61,5.46v23.7h-6.14v-23.4c0-5.19-2.54-7.79-7.62-7.79-4.01,0-6.74,1.71-8.22,5.12v26.08h-6.11v-35.71h5.78Z"/>
      <path class="cls-2" d="M328.72,82.18c-.35-.7-.64-1.96-.86-3.76-2.84,2.95-6.23,4.42-10.17,4.42-3.52,0-6.41-1-8.66-2.99-2.26-1.99-3.38-4.52-3.38-7.57,0-3.72,1.41-6.61,4.24-8.67,2.83-2.06,6.8-3.09,11.93-3.09h5.94v-2.81c0-2.13-.64-3.83-1.92-5.1-1.28-1.27-3.16-1.9-5.64-1.9-2.18,0-4.01.55-5.48,1.65-1.47,1.1-2.21,2.43-2.21,3.99h-6.14c0-1.78.63-3.5,1.9-5.17,1.27-1.66,2.98-2.98,5.15-3.94,2.17-.97,4.55-1.45,7.15-1.45,4.12,0,7.34,1.03,9.67,3.09,2.33,2.06,3.54,4.89,3.63,8.5v16.44c0,3.28.42,5.89,1.25,7.82v.53h-6.4ZM318.59,77.53c1.92,0,3.73-.5,5.45-1.49,1.72-.99,2.96-2.28,3.73-3.86v-7.33h-4.79c-7.48,0-11.22,2.19-11.22,6.57,0,1.91.64,3.41,1.91,4.49,1.28,1.08,2.92,1.62,4.92,1.62Z"/>
      <path class="cls-2" d="M349.22,46.47l.2,4.49c2.73-3.43,6.29-5.15,10.69-5.15,7.55,0,11.35,4.26,11.42,12.77v23.6h-6.11v-23.63c-.02-2.57-.61-4.48-1.77-5.71-1.16-1.23-2.95-1.85-5.4-1.85-1.98,0-3.72.53-5.22,1.58s-2.66,2.44-3.5,4.16v25.45h-6.11v-35.71h5.78Z"/>
      <path class="cls-2" d="M379.25,64.03c0-5.48,1.3-9.89,3.89-13.22,2.6-3.33,6-5,10.2-5s7.49,1.43,9.94,4.29v-18.62h6.11v50.7h-5.61l-.3-3.83c-2.44,2.99-5.84,4.49-10.2,4.49s-7.51-1.69-10.12-5.08-3.91-7.81-3.91-13.27v-.46ZM385.36,64.72c0,4.05.84,7.22,2.51,9.51,1.67,2.29,3.98,3.43,6.93,3.43,3.87,0,6.7-1.74,8.48-5.21v-16.4c-1.83-3.37-4.63-5.05-8.42-5.05-2.99,0-5.33,1.16-7,3.47-1.67,2.31-2.51,5.73-2.51,10.27Z"/>
      <path class="cls-1" d="M420.91,86.31h-7.1l17.69-52.18h7.1l-17.69,52.18Z"/>
    </g>
    <path class="cls-1" d="M10.46,58.59l24.81,13.38v10.36L2.85,62.3v-7.72l32.42-19.99v10.36l-24.81,13.64Z"/>
    <path class="cls-1" d="M470.65,61.13l-26.2-13.7v-10.05l33.85,19.99v7.72l-33.85,20.04v-10.15l26.2-13.86Z"/>
  </g>
  <g>
    <path class="cls-2" d="M127.79,94.57h-5.16v5.33h-2.69v-13.05h8.5v2.18h-5.81v3.37h5.16v2.17Z"/>
    <path class="cls-2" d="M135.04,92.63c-.35-.05-.66-.07-.93-.07-.98,0-1.62.33-1.93,1v6.35h-2.59v-9.7h2.45l.07,1.16c.52-.89,1.24-1.33,2.16-1.33.29,0,.56.04.81.12l-.04,2.49Z"/>
    <path class="cls-2" d="M140.58,100.08c-1.42,0-2.58-.44-3.47-1.31-.89-.87-1.34-2.03-1.34-3.49v-.25c0-.97.19-1.85.56-2.61s.91-1.36,1.6-1.78c.69-.42,1.48-.62,2.36-.62,1.33,0,2.37.42,3.13,1.25.76.84,1.14,2.02,1.14,3.56v1.06h-6.18c.08.63.34,1.14.76,1.52.42.38.95.57,1.6.57,1,0,1.78-.36,2.34-1.08l1.27,1.43c-.39.55-.91.98-1.58,1.29-.66.31-1.4.46-2.21.46ZM140.29,92.11c-.51,0-.93.17-1.25.52-.32.35-.52.85-.61,1.5h3.6v-.21c-.01-.58-.17-1.02-.47-1.34-.3-.31-.72-.47-1.27-.47Z"/>
    <path class="cls-2" d="M150.51,100.08c-1.42,0-2.58-.44-3.47-1.31-.89-.87-1.34-2.03-1.34-3.49v-.25c0-.97.19-1.85.56-2.61s.91-1.36,1.6-1.78c.69-.42,1.48-.62,2.36-.62,1.33,0,2.37.42,3.13,1.25.76.84,1.14,2.02,1.14,3.56v1.06h-6.18c.08.63.34,1.14.76,1.52.42.38.95.57,1.6.57,1,0,1.78-.36,2.34-1.08l1.27,1.43c-.39.55-.91.98-1.58,1.29-.66.31-1.4.46-2.21.46ZM150.21,92.11c-.51,0-.93.17-1.25.52-.32.35-.52.85-.61,1.5h3.6v-.21c-.01-.58-.17-1.02-.47-1.34-.3-.31-.72-.47-1.27-.47Z"/>
    <path class="cls-2" d="M158.7,99.9h-2.6v-13.77h2.6v13.77Z"/>
    <path class="cls-2" d="M166.45,99.9c-.12-.23-.21-.52-.26-.87-.63.7-1.44,1.05-2.45,1.05-.95,0-1.74-.28-2.36-.83s-.94-1.24-.94-2.08c0-1.03.38-1.82,1.14-2.37.76-.55,1.86-.83,3.3-.83h1.19v-.56c0-.45-.12-.81-.35-1.08s-.59-.4-1.09-.4c-.44,0-.78.1-1.03.31s-.37.5-.37.86h-2.59c0-.56.17-1.08.52-1.56.35-.48.84-.85,1.47-1.12.63-.27,1.34-.41,2.13-.41,1.2,0,2.14.3,2.85.9.7.6,1.05,1.44,1.05,2.53v4.2c0,.92.13,1.62.39,2.09v.15h-2.62ZM164.31,98.1c.38,0,.73-.08,1.06-.26.32-.17.56-.4.72-.69v-1.67h-.97c-1.3,0-1.99.45-2.07,1.34v.15c0,.32.1.59.33.8.23.21.54.31.93.31Z"/>
    <path class="cls-2" d="M173.06,90.2l.08,1.12c.69-.87,1.62-1.3,2.79-1.3,1.03,0,1.79.3,2.29.91s.76,1.51.77,2.71v6.27h-2.59v-6.22c0-.55-.12-.95-.36-1.2-.24-.25-.64-.37-1.19-.37-.73,0-1.28.31-1.64.93v6.86h-2.59v-9.7h2.44Z"/>
    <path class="cls-2" d="M184.99,97.99c.48,0,.87-.13,1.17-.39s.45-.61.47-1.05h2.43c0,.66-.19,1.26-.54,1.81s-.84.97-1.45,1.27c-.61.3-1.29.45-2.03.45-1.39,0-2.48-.44-3.28-1.32-.8-.88-1.2-2.1-1.2-3.65v-.17c0-1.49.4-2.69,1.19-3.58s1.89-1.33,3.27-1.33c1.21,0,2.19.34,2.92,1.04.73.69,1.1,1.61,1.12,2.76h-2.43c-.01-.5-.17-.91-.47-1.23s-.69-.47-1.18-.47c-.6,0-1.06.22-1.37.66-.31.44-.46,1.15-.46,2.14v.27c0,1,.15,1.72.46,2.16.3.44.77.66,1.39.66Z"/>
    <path class="cls-2" d="M195,100.08c-1.42,0-2.58-.44-3.47-1.31-.89-.87-1.34-2.03-1.34-3.49v-.25c0-.97.19-1.85.56-2.61s.91-1.36,1.6-1.78c.69-.42,1.48-.62,2.36-.62,1.33,0,2.37.42,3.13,1.25.76.84,1.14,2.02,1.14,3.56v1.06h-6.18c.08.63.34,1.14.76,1.52.42.38.95.57,1.6.57,1,0,1.78-.36,2.34-1.08l1.27,1.43c-.39.55-.91.98-1.58,1.29-.66.31-1.4.46-2.21.46ZM194.7,92.11c-.51,0-.93.17-1.25.52-.32.35-.52.85-.61,1.5h3.6v-.21c-.01-.58-.17-1.02-.47-1.34-.3-.31-.72-.47-1.27-.47Z"/>
    <path class="cls-2" d="M205.2,99.9v-13.05h4.02c1.15,0,2.17.26,3.08.78s1.61,1.25,2.12,2.21.76,2.04.76,3.25v.6c0,1.21-.25,2.29-.75,3.24-.5.94-1.2,1.68-2.11,2.2-.91.52-1.93.78-3.07.79h-4.04ZM207.89,89.03v8.71h1.3c1.05,0,1.86-.34,2.41-1.03.56-.69.84-1.67.85-2.95v-.69c0-1.33-.28-2.33-.82-3.02-.55-.68-1.35-1.03-2.41-1.03h-1.33Z"/>
    <path class="cls-2" d="M221.42,100.08c-1.42,0-2.58-.44-3.47-1.31-.89-.87-1.34-2.03-1.34-3.49v-.25c0-.97.19-1.85.56-2.61s.91-1.36,1.6-1.78c.69-.42,1.48-.62,2.36-.62,1.33,0,2.37.42,3.13,1.25.76.84,1.14,2.02,1.14,3.56v1.06h-6.18c.08.63.34,1.14.76,1.52.42.38.95.57,1.6.57,1,0,1.78-.36,2.34-1.08l1.27,1.43c-.39.55-.91.98-1.58,1.29-.66.31-1.4.46-2.21.46ZM221.13,92.11c-.51,0-.93.17-1.25.52-.32.35-.52.85-.61,1.5h3.6v-.21c-.01-.58-.17-1.02-.47-1.34-.3-.31-.72-.47-1.27-.47Z"/>
    <path class="cls-2" d="M230.4,96.74l1.8-6.54h2.71l-3.27,9.7h-2.47l-3.27-9.7h2.71l1.8,6.54Z"/>
    <path class="cls-2" d="M240.39,100.08c-1.42,0-2.58-.44-3.47-1.31-.89-.87-1.34-2.03-1.34-3.49v-.25c0-.97.19-1.85.56-2.61.38-.77.91-1.36,1.6-1.78.69-.42,1.48-.62,2.36-.62,1.33,0,2.37.42,3.13,1.25.76.84,1.14,2.02,1.14,3.56v1.06h-6.18c.08.63.34,1.14.76,1.52.42.38.96.57,1.6.57,1,0,1.78-.36,2.34-1.08l1.27,1.43c-.39.55-.92.98-1.58,1.29s-1.4.46-2.21.46ZM240.09,92.11c-.51,0-.93.17-1.25.52-.32.35-.52.85-.61,1.5h3.6v-.21c-.01-.58-.17-1.02-.47-1.34-.3-.31-.72-.47-1.27-.47Z"/>
    <path class="cls-2" d="M248.58,99.9h-2.6v-13.77h2.6v13.77Z"/>
    <path class="cls-2" d="M250.31,94.96c0-.96.18-1.82.56-2.57.37-.75.9-1.34,1.6-1.75s1.5-.62,2.42-.62c1.31,0,2.38.4,3.21,1.2.83.8,1.29,1.89,1.38,3.26l.02.66c0,1.49-.42,2.68-1.25,3.58-.83.9-1.95,1.35-3.34,1.35s-2.51-.45-3.35-1.34c-.83-.9-1.25-2.12-1.25-3.66v-.12ZM252.9,95.15c0,.92.17,1.63.52,2.11.35.49.84.73,1.49.73s1.12-.24,1.47-.72c.35-.48.53-1.25.53-2.31,0-.9-.18-1.6-.53-2.1-.35-.5-.85-.75-1.49-.75s-1.12.25-1.47.74c-.35.49-.52,1.26-.52,2.29Z"/>
    <path class="cls-2" d="M269.83,95.14c0,1.49-.34,2.69-1.02,3.59-.68.9-1.59,1.35-2.75,1.35-.98,0-1.77-.34-2.38-1.02v4.57h-2.59v-13.43h2.4l.09.95c.63-.75,1.45-1.13,2.46-1.13,1.2,0,2.12.44,2.79,1.33.66.88.99,2.1.99,3.66v.13ZM267.24,94.94c0-.91-.16-1.6-.48-2.1-.32-.49-.79-.74-1.39-.74-.81,0-1.37.31-1.68.94v3.98c.32.64.88.96,1.69.96,1.24,0,1.86-1.02,1.86-3.05Z"/>
    <path class="cls-2" d="M275.9,100.08c-1.42,0-2.58-.44-3.47-1.31-.89-.87-1.34-2.03-1.34-3.49v-.25c0-.97.19-1.85.56-2.61.38-.77.91-1.36,1.6-1.78.69-.42,1.48-.62,2.36-.62,1.33,0,2.37.42,3.13,1.25.76.84,1.14,2.02,1.14,3.56v1.06h-6.18c.08.63.34,1.14.76,1.52.42.38.96.57,1.6.57,1,0,1.78-.36,2.34-1.08l1.27,1.43c-.39.55-.92.98-1.58,1.29s-1.4.46-2.21.46ZM275.6,92.11c-.51,0-.93.17-1.25.52-.32.35-.52.85-.61,1.5h3.6v-.21c-.01-.58-.17-1.02-.47-1.34-.3-.31-.72-.47-1.27-.47Z"/>
    <path class="cls-2" d="M286.81,92.63c-.35-.05-.66-.07-.93-.07-.98,0-1.62.33-1.93,1v6.35h-2.59v-9.7h2.45l.07,1.16c.52-.89,1.24-1.33,2.16-1.33.29,0,.56.04.81.12l-.04,2.49Z"/>
    <path class="cls-2" d="M293.3,97.22c0-.32-.16-.57-.47-.75s-.82-.34-1.51-.49c-2.31-.48-3.46-1.46-3.46-2.94,0-.86.36-1.58,1.07-2.16.71-.58,1.65-.86,2.8-.86,1.23,0,2.21.29,2.95.87s1.11,1.33,1.11,2.26h-2.59c0-.37-.12-.68-.36-.92-.24-.24-.61-.36-1.12-.36-.44,0-.77.1-1.01.3s-.36.45-.36.75c0,.29.14.52.41.7.27.18.73.33,1.38.46s1.19.27,1.63.43c1.37.5,2.05,1.37,2.05,2.61,0,.88-.38,1.6-1.14,2.15-.76.55-1.74.82-2.94.82-.81,0-1.53-.15-2.17-.44-.63-.29-1.12-.69-1.48-1.19s-.54-1.05-.54-1.64h2.46c.02.46.19.81.51,1.06.32.25.74.37,1.27.37.5,0,.87-.09,1.12-.28.25-.19.38-.43.38-.74Z"/>
    <path class="cls-2" d="M301.66,94.96c0-.96.18-1.82.56-2.57.37-.75.9-1.34,1.6-1.75s1.5-.62,2.42-.62c1.31,0,2.38.4,3.21,1.2.83.8,1.29,1.89,1.38,3.26l.02.66c0,1.49-.42,2.68-1.25,3.58-.83.9-1.95,1.35-3.34,1.35s-2.51-.45-3.35-1.34c-.83-.9-1.25-2.12-1.25-3.66v-.12ZM304.25,95.15c0,.92.17,1.63.52,2.11.35.49.84.73,1.49.73s1.12-.24,1.47-.72c.35-.48.53-1.25.53-2.31,0-.9-.18-1.6-.53-2.1-.35-.5-.85-.75-1.49-.75s-1.12.25-1.47.74c-.35.49-.52,1.26-.52,2.29Z"/>
    <path class="cls-2" d="M314.83,90.2l.08,1.12c.69-.87,1.62-1.3,2.79-1.3,1.03,0,1.79.3,2.29.91s.76,1.51.77,2.71v6.27h-2.59v-6.22c0-.55-.12-.95-.36-1.2-.24-.25-.64-.37-1.19-.37-.73,0-1.28.31-1.64.93v6.86h-2.59v-9.7h2.44Z"/>
    <path class="cls-2" d="M327.47,99.9v-13.05h4.02c1.15,0,2.17.26,3.08.78s1.61,1.25,2.12,2.21c.51.95.76,2.04.76,3.25v.6c0,1.21-.25,2.29-.75,3.24s-1.2,1.68-2.11,2.2c-.91.52-1.93.78-3.08.79h-4.04ZM330.16,89.03v8.71h1.3c1.05,0,1.86-.34,2.41-1.03.56-.69.84-1.67.85-2.95v-.69c0-1.33-.27-2.33-.82-3.02-.55-.68-1.35-1.03-2.41-1.03h-1.33Z"/>
    <path class="cls-2" d="M343.69,100.08c-1.42,0-2.58-.44-3.47-1.31-.89-.87-1.34-2.03-1.34-3.49v-.25c0-.97.19-1.85.56-2.61.38-.77.91-1.36,1.6-1.78.69-.42,1.48-.62,2.36-.62,1.33,0,2.37.42,3.13,1.25.76.84,1.14,2.02,1.14,3.56v1.06h-6.18c.08.63.34,1.14.76,1.52.42.38.96.57,1.6.57,1,0,1.78-.36,2.34-1.08l1.27,1.43c-.39.55-.92.98-1.58,1.29s-1.4.46-2.21.46ZM343.4,92.11c-.51,0-.93.17-1.25.52-.32.35-.52.85-.61,1.5h3.6v-.21c-.01-.58-.17-1.02-.47-1.34-.3-.31-.72-.47-1.27-.47Z"/>
    <path class="cls-2" d="M351.58,90.2l.08,1.08c.69-.84,1.62-1.26,2.79-1.26,1.25,0,2.11.49,2.57,1.48.68-.99,1.65-1.48,2.91-1.48,1.05,0,1.83.31,2.35.92.51.61.77,1.54.77,2.77v6.19h-2.6v-6.2c0-.55-.11-.95-.32-1.21-.21-.25-.59-.38-1.14-.38-.78,0-1.32.37-1.61,1.11v6.68s-2.58,0-2.58,0v-6.19c0-.56-.11-.97-.33-1.22-.22-.25-.6-.38-1.13-.38-.74,0-1.27.31-1.6.92v6.87h-2.59v-9.7h2.43Z"/>
    <path class="cls-2" d="M370.67,99.9c-.12-.23-.21-.52-.26-.87-.63.7-1.44,1.05-2.45,1.05-.95,0-1.74-.28-2.36-.83-.62-.55-.94-1.24-.94-2.08,0-1.03.38-1.82,1.14-2.37.76-.55,1.86-.83,3.3-.83h1.19v-.56c0-.45-.12-.81-.34-1.08-.23-.27-.59-.4-1.09-.4-.44,0-.78.1-1.03.31s-.37.5-.37.86h-2.59c0-.56.17-1.08.52-1.56.35-.48.84-.85,1.47-1.12.63-.27,1.34-.41,2.13-.41,1.2,0,2.14.3,2.85.9s1.05,1.44,1.05,2.53v4.2c0,.92.13,1.62.39,2.09v.15h-2.62ZM368.52,98.1c.38,0,.74-.08,1.06-.26.32-.17.56-.4.72-.69v-1.67h-.97c-1.3,0-1.99.45-2.07,1.34v.15c0,.32.1.59.33.8.23.21.54.31.93.31Z"/>
    <path class="cls-2" d="M377.27,90.2l.08,1.12c.69-.87,1.62-1.3,2.79-1.3,1.03,0,1.79.3,2.29.91s.76,1.51.77,2.71v6.27h-2.59v-6.22c0-.55-.12-.95-.36-1.2-.24-.25-.64-.37-1.19-.37-.73,0-1.28.31-1.64.93v6.86h-2.59v-9.7h2.44Z"/>
    <path class="cls-2" d="M384.77,94.98c0-1.51.34-2.72,1.02-3.61.68-.9,1.61-1.34,2.78-1.34.94,0,1.72.35,2.34,1.06v-4.95h2.6v13.77h-2.34l-.13-1.03c-.65.81-1.48,1.21-2.49,1.21-1.14,0-2.06-.45-2.75-1.35s-1.04-2.15-1.04-3.75ZM387.36,95.16c0,.91.16,1.61.47,2.1s.78.73,1.38.73c.8,0,1.37-.34,1.69-1.02v-3.85c-.32-.68-.88-1.02-1.68-1.02-1.25,0-1.87,1.02-1.87,3.05Z"/>
    <path class="cls-2" d="M395.65,98.63c0-.41.14-.75.42-1,.28-.26.63-.38,1.04-.38s.78.13,1.05.38c.28.26.42.59.42,1s-.14.74-.41.99c-.28.25-.63.38-1.06.38s-.77-.13-1.05-.38c-.28-.25-.41-.58-.41-.99Z"/>
    <path class="cls-2" d="M400.98,98.63c0-.41.14-.75.42-1,.28-.26.63-.38,1.04-.38s.78.13,1.05.38c.28.26.42.59.42,1s-.14.74-.41.99c-.28.25-.63.38-1.06.38s-.77-.13-1.05-.38c-.28-.25-.41-.58-.41-.99Z"/>
    <path class="cls-2" d="M406.32,98.63c0-.41.14-.75.42-1,.28-.26.63-.38,1.04-.38s.78.13,1.05.38c.28.26.42.59.42,1s-.14.74-.41.99c-.28.25-.63.38-1.06.38s-.77-.13-1.05-.38c-.28-.25-.41-.58-.41-.99Z"/>
  </g>
</svg>